<?xml version="1.0" encoding="UTF-8" standalone="no"?> <svg width="24" height="24" viewBox="0 0 24 24" fill="none" xmlns="http://www.w3.org/2000/svg">
<path fill-rule="evenodd" clip-rule="evenodd" d="M6 2C5.44772 2 5 2.44772 5 3V21C5 21.5523 5.44772 22 6 22H18C18.5523 22 19 21.5523 19 21V9H15C13.3431 9 12 7.65685 12 6V2H6ZM14 3.41421L17.5858 7H15C14.4477 7 14 6.55228 14 6V3.41421ZM3 3C3 1.34315 4.34315 0 6 0H13C13.2652 0 13.5196 0.105357 13.7071 0.292893L20.7071 7.29289C20.8946 7.48043 21 7.73478 21 8V21C21 22.6569 19.6569 24 18 24H6C4.34315 24 3 22.6569 3 21V3Z" fill="#293644"/>
</svg>
